<?xml version="1.0" encoding="UTF-8" standalone="no"?>
<!-- Creator: CorelDRAW X8 -->

<svg
   xmlns:dc="http://purl.org/dc/elements/1.1/"
   xmlns:cc="http://creativecommons.org/ns#"
   xmlns:rdf="http://www.w3.org/1999/02/22-rdf-syntax-ns#"
   xmlns:svg="http://www.w3.org/2000/svg"
   xmlns="http://www.w3.org/2000/svg"
   xmlns:sodipodi="http://sodipodi.sourceforge.net/DTD/sodipodi-0.dtd"
   xmlns:inkscape="http://www.inkscape.org/namespaces/inkscape"
   xml:space="preserve"
   width="425.14276"
   height="425.14395"
   version="1.1"
   style="clip-rule:evenodd;fill-rule:evenodd;image-rendering:optimizeQuality;shape-rendering:geometricPrecision;text-rendering:geometricPrecision"
   viewBox="0 0 4251427.6 4252132.1"
   id="svg4484"
   inkscape:version="0.91 r13725"
   sodipodi:docname="cp_100_pa.svg"><metadata
     id="metadata4711"><rdf:RDF><cc:Work
         rdf:about=""><dc:format>image/svg+xml</dc:format><dc:type
           rdf:resource="http://purl.org/dc/dcmitype/StillImage" /><dc:title></dc:title></cc:Work></rdf:RDF></metadata><sodipodi:namedview
     pagecolor="#ffffff"
     bordercolor="#666666"
     borderopacity="1"
     objecttolerance="10"
     gridtolerance="10"
     guidetolerance="10"
     inkscape:pageopacity="0"
     inkscape:pageshadow="2"
     inkscape:window-width="1366"
     inkscape:window-height="705"
     id="namedview4709"
     showgrid="false"
     fit-margin-top="0"
     fit-margin-left="0"
     fit-margin-right="0"
     fit-margin-bottom="0"
     inkscape:zoom="0.68052318"
     inkscape:cx="409.7051"
     inkscape:cy="183.47721"
     inkscape:window-x="-8"
     inkscape:window-y="-8"
     inkscape:window-maximized="1"
     inkscape:current-layer="svg4484" /><defs
     id="defs4486"><style
       type="text/css"
       id="style4488"><![CDATA[
    .str0 {stroke:yellow;stroke-width:118114}
    .str1 {stroke:black;stroke-width:59057.2}
    .str2 {stroke:#99FF99;stroke-width:59057.2}
    .fil2 {fill:none}
    .fil0 {fill:black}
    .fil1 {fill:yellow;fill-rule:nonzero}
    .fil3 {fill:#99FF99;fill-rule:nonzero}
   ]]></style></defs><rect
     style="fill:#000000;stroke:#ffff00;stroke-width:118114"
     id="rect4492"
     ry="590572"
     rx="590572"
     height="4134018"
     width="4134006"
     y="59057"
     x="56200.09"
     class="fil0 str0" /><path
     style="fill:#ffff00;fill-rule:nonzero"
     inkscape:connector-curvature="0"
     id="path4494"
     d="m 378533.09,2696825 243127,0 c 52951,0 92590,12555 119024,37761 26316,25217 39521,61112 39521,107697 0,47777 -14422,85219 -43159,112090 -28737,26966 -72664,40407 -131686,40407 l -80164,0 0,175070 -146663,0 0,-473025 z m 146663,202153 36013,0 c 28407,0 48332,-4949 59790,-14753 11445,-9792 17173,-22347 17173,-37655 0,-14859 -4960,-27414 -14976,-37761 -9910,-10359 -28631,-15532 -56152,-15532 l -41848,0 0,105701 z"
     class="fil1" /><path
     style="fill:#ffff00;fill-rule:nonzero"
     inkscape:connector-curvature="0"
     d="m 1091165.1,3091894 -165608.01,0 -23788,77956 -149191,0 178046,-473025 159986.01,0 177278,473025 -153053,0 -23670,-77956 z m -30946,-102405 -51640,-170002 -51864.01,170002 103504.01,0 z"
     class="fil1"
     id="1" /><polygon
     style="fill:#ffff00;fill-rule:nonzero"
     points="22736305,13584323 22598229,13584323 22421837,13324577 22421837,13584323 22284422,13584323 22284422,13111298 22420845,13111298 22598229,13372472 22598229,13111298 22736305,13111298 "
     class="fil1"
     id="2"
     transform="translate(-20969076,-10414473)" /><path
     style="fill:#ffff00;fill-rule:nonzero"
     inkscape:connector-curvature="0"
     d="m 2102190.1,2998737 0,-98437 225941,0 0,201173 c -43277,29505 -81476,49655 -114619,60333 -33261,10689 -72675,15969 -118256,15969 -56175,0 -101980,-9579 -137320,-28737 -35339,-19052 -62766,-47565 -82255,-85444 -19488,-37761 -29174,-81263 -29174,-130257 0,-51640 10678,-96452 31927,-134662 21260,-38092 52419,-67054 93487,-86873 32045,-15308 75204,-22903 129383,-22903 52195,0 91279,4737 117157,14198 25986,9472 47459,24118 64526,44044 17068,19938 29954,45144 38541,75653 l -140721,25323 c -5835,-17953 -15639,-31713 -29505,-41186 -13879,-9579 -31490,-14316 -53081,-14316 -31938,0 -57486,11127 -76538,33368 -19040,22241 -28513,57474 -28513,105594 0,51085 9579,87641 28843,109551 19170,21911 46030,32931 80401,32931 16288,0 31820,-2315 46679,-7052 14752,-4736 31714,-12768 50872,-24001 l 0,-44269 -97775,0 z"
     class="fil1"
     id="3" /><path
     style="fill:#ffff00;fill-rule:nonzero"
     inkscape:connector-curvature="0"
     d="m 2705696.1,3091894 -165609,0 -23788,77956 -149190,0 178045,-473025 159986,0 177278,473025 -153052,0 -23670,-77956 z m -30946,-102405 -51640,-170002 -51864,170002 103504,0 z"
     class="fil1"
     id="4" /><polygon
     style="fill:#ffff00;fill-rule:nonzero"
     points="24270895,13287690 24270895,13384142 24044293,13384142 24044293,13477299 24296006,13477299 24296006,13584323 23897630,13584323 23897630,13111298 24288731,13111298 24288731,13212380 24044293,13212380 24044293,13287690 "
     class="fil1"
     id="5"
     transform="translate(-20969076,-10414473)" /><path
     style="fill:#ffff00;fill-rule:nonzero"
     inkscape:connector-curvature="0"
     d="m 3696676.1,3091894 -165608,0 -23789,77956 -149190,0 178046,-473025 159986,0 177278,473025 -153053,0 -23670,-77956 z m -30946,-102405 -51640,-170002 -51864,170002 103504,0 z"
     class="fil1"
     id="6" /><polygon
     style="fill:#ffff00;fill-rule:nonzero"
     id="polygon4502"
     points="21400430,12794763 21400430,12964753 21347715,12964753 21347715,12794763 "
     class="fil1"
     transform="translate(-20969076,-10414473)" /><path
     style="fill:#ffff00;fill-rule:nonzero"
     inkscape:connector-curvature="0"
     d="m 473580.09,2550280 0,-169990 87523,0 c 16229,0 28654,1382 37194,4193 8587,2764 15520,7949 20776,15473 5268,7559 7879,16772 7879,27615 0,9414 -2020,17575 -6060,24414 -3992,6886 -9532,12426 -16618,16702 -4465,2693 -10643,4949 -18438,6720 6248,2103 10807,4158 13654,6260 1902,1382 4713,4394 8386,8942 3638,4547 6095,8067 7323,10559 l 25525,49112 -59353,0 -28064,-51840 c -3555,-6721 -6721,-11080 -9496,-13099 -3792,-2611 -8115,-3910 -12898,-3910 l -4630,0 0,68849 -52703,0 z m 52703,-100905 22205,0 c 2374,0 7040,-792 13926,-2339 3484,-673 6331,-2445 8504,-5339 2221,-2882 3331,-6165 3331,-9886 0,-5504 -1748,-9744 -5233,-12662 -3484,-2976 -10004,-4441 -19618,-4441 l -23115,0 0,34667 z"
     class="fil1"
     id="path4504" /><path
     style="fill:#ffff00;fill-rule:nonzero"
     inkscape:connector-curvature="0"
     d="m 857889.09,2480711 46053,13890 c -3083,12898 -7949,23705 -14635,32328 -6649,8669 -14882,15201 -24780,19595 -9851,4394 -22394,6603 -37631,6603 -18521,0 -33592,-2693 -45344,-8032 -11717,-5374 -21804,-14835 -30309,-28336 -8504,-13489 -12780,-30816 -12780,-51876 0,-28087 7477,-49691 22430,-64809 15001,-15083 36167,-22643 63558,-22643 21402,0 38257,4323 50529,12981 12225,8670 21367,21969 27296,39935 l -46289,10240 c -1630,-5138 -3330,-8894 -5102,-11268 -2977,-4004 -6579,-7087 -10808,-9225 -4275,-2173 -9024,-3248 -14280,-3248 -11953,0 -21095,4796 -27426,14327 -4784,7087 -7205,18237 -7205,33403 0,18828 2847,31690 8587,38694 5740,6969 13772,10442 24143,10442 10051,0 17646,-2800 22784,-8457 5150,-5622 8870,-13820 11209,-24544 z"
     class="fil1"
     id="path4506" /><path
     style="fill:#ffff00;fill-rule:nonzero"
     inkscape:connector-curvature="0"
     d="m 926632.09,2465403 c 0,-27745 7712,-49348 23185,-64774 15473,-15473 36994,-23198 64621.01,-23198 28288,0 50092,7607 65400,22761 15319,15189 22950,36486 22950,63829 0,19855 -3319,36119 -10005,48829 -6685,12697 -16382,22595 -29009,29670 -12662,7087 -28406,10607 -47281,10607 -19158.01,0 -35021.01,-3048 -47600.01,-9142 -12544,-6131 -22761,-15781 -30556,-28998 -7796,-13181 -11705,-29717 -11705,-49584 z m 52466,118 c 0,17138 3201,29481 9579,36958 6402,7477 15107.01,11233 26115.01,11233 11280,0 20056,-3674 26233,-10997 6213,-7358 9296,-20493 9296,-39533 0,-15980 -3248,-27650 -9697,-35021 -6485,-7394 -15225,-11079 -26304,-11079 -10607,0 -19158.01,3768 -25572.01,11245 -6449,7476 -9650,19902 -9650,37194 z"
     class="fil1"
     id="path4508" /><polygon
     style="fill:#ffff00;fill-rule:nonzero"
     points="22266953,12964753 22217333,12964753 22153941,12871407 22153941,12964753 22104558,12964753 22104558,12794763 22153575,12794763 22217333,12888616 22217333,12794763 22266953,12794763 "
     class="fil1"
     id="polygon4510"
     transform="translate(-20969076,-10414473)" /><polygon
     style="fill:#ffff00;fill-rule:nonzero"
     points="22410309,12964753 22353413,12964753 22289182,12794763 22344070,12794763 22382375,12917106 22420124,12794763 22473429,12794763 "
     class="fil1"
     id="polygon4512"
     transform="translate(-20969076,-10414473)" /><path
     style="fill:#ffff00;fill-rule:nonzero"
     inkscape:connector-curvature="0"
     d="m 1510601.1,2465403 c 0,-27745 7713,-49348 23186,-64774 15473,-15473 36994,-23198 64621,-23198 28288,0 50092,7607 65400,22761 15319,15189 22949,36486 22949,63829 0,19855 -3319,36119 -10004,48829 -6685,12697 -16382,22595 -29009,29670 -12662,7087 -28406,10607 -47281,10607 -19158,0 -35021,-3048 -47600,-9142 -12544,-6131 -22761,-15781 -30556,-28998 -7796,-13181 -11706,-29717 -11706,-49584 z m 52467,118 c 0,17138 3201,29481 9579,36958 6402,7477 15107,11233 26115,11233 11280,0 20056,-3674 26233,-10997 6213,-7358 9296,-20493 9296,-39533 0,-15980 -3248,-27650 -9697,-35021 -6485,-7394 -15225,-11079 -26304,-11079 -10607,0 -19159,3768 -25572,11245 -6449,7476 -9650,19902 -9650,37194 z"
     class="fil1"
     id="path4514" /><polygon
     style="fill:#ffff00;fill-rule:nonzero"
     points="22688043,12964753 22688043,12794763 22740521,12794763 22740521,12922964 22822670,12922964 22822670,12964753 "
     class="fil1"
     id="7"
     transform="translate(-20969076,-10414473)" /><path
     style="fill:#ffff00;fill-rule:nonzero"
     inkscape:connector-curvature="0"
     d="m 1985788.1,2380290 52478,0 0,101259 c 0,10004 -1583,19501 -4713,28407 -3130,8941 -8032,16737 -14717,23422 -6685,6697 -13689,11362 -21012,14091 -10205,3756 -22478,5658 -36758,5658 -8279,0 -17292,-591 -27071,-1737 -9769,-1145 -17966,-3449 -24533,-6886 -6567,-3449 -12579,-8315 -18000,-14646 -5469,-6331 -9190,-12851 -11198,-19583 -3248,-10808 -4878,-20375 -4878,-28726 l 0,-101259 52478,0 0,103669 c 0,9260 2575,16500 7678,21686 5138,5220 12260,7831 21367,7831 8976,0 16063,-2564 21213,-7713 5103,-5103 7666,-12391 7666,-21804 l 0,-103669 z"
     class="fil1"
     id="8" /><polygon
     style="fill:#ffff00;fill-rule:nonzero"
     points="23087743,12964753 23087743,12836788 23034083,12836788 23034083,12794763 23193868,12794763 23193868,12836788 23140209,12836788 23140209,12964753 "
     class="fil1"
     id="9"
     transform="translate(-20969076,-10414473)" /><polygon
     style="fill:#ffff00;fill-rule:nonzero"
     points="23276218,12794763 23276218,12964753 23223503,12964753 23223503,12794763 "
     class="fil1"
     id="10"
     transform="translate(-20969076,-10414473)" /><path
     style="fill:#ffff00;fill-rule:nonzero"
     inkscape:connector-curvature="0"
     d="m 2342009.1,2465403 c 0,-27745 7713,-49348 23186,-64774 15473,-15473 36994,-23198 64621,-23198 28288,0 50092,7607 65400,22761 15319,15189 22949,36486 22949,63829 0,19855 -3319,36119 -10004,48829 -6685,12697 -16383,22595 -29009,29670 -12662,7087 -28407,10607 -47281,10607 -19158,0 -35021,-3048 -47600,-9142 -12544,-6131 -22761,-15781 -30557,-28998 -7795,-13181 -11705,-29717 -11705,-49584 z m 52467,118 c 0,17138 3201,29481 9579,36958 6402,7477 15107,11233 26115,11233 11280,0 20056,-3674 26233,-10997 6213,-7358 9296,-20493 9296,-39533 0,-15980 -3248,-27650 -9698,-35021 -6484,-7394 -15224,-11079 -26304,-11079 -10606,0 -19158,3768 -25571,11245 -6449,7476 -9650,19902 -9650,37194 z"
     class="fil1"
     id="11" /><polygon
     style="fill:#ffff00;fill-rule:nonzero"
     points="23682331,12964753 23632711,12964753 23569319,12871407 23569319,12964753 23519935,12964753 23519935,12794763 23568953,12794763 23632711,12888616 23632711,12794763 23682331,12794763 "
     class="fil1"
     id="12"
     transform="translate(-20969076,-10414473)" /><path
     style="fill:#ffff00;fill-rule:nonzero"
     inkscape:connector-curvature="0"
     d="m 2835007.1,2380290 87370,0 c 19040,0 33284,4512 42781,13571 9461,9059 14209,21957 14209,38694 0,17174 -5185,30627 -15520,40289 -10324,9697 -26116,14516 -47317,14516 l -28808,0 0,62920 -52715,0 0,-169990 z m 52715,72652 12933,0 c 10217,0 17375,-1784 21485,-5303 4122,-3520 6178,-8032 6178,-13536 0,-5339 -1784,-9851 -5386,-13572 -3556,-3720 -10288,-5587 -20174,-5587 l -15036,0 0,37998 z"
     class="fil1"
     id="13" /><polygon
     style="fill:#ffff00;fill-rule:nonzero"
     points="23979731,12964753 23979731,12794763 24032210,12794763 24032210,12922964 24114358,12922964 24114358,12964753 "
     class="fil1"
     id="14"
     transform="translate(-20969076,-10414473)" /><path
     style="fill:#ffff00;fill-rule:nonzero"
     inkscape:connector-curvature="0"
     d="m 3277559.1,2522263 -59518,0 -8540,28017 -53624,0 63983,-169990 57498,0 63711,169990 -55006,0 -8504,-28017 z m -11127,-36804 -18556,-61089 -18638,61089 37194,0 z"
     class="fil1"
     id="15" /><polygon
     style="fill:#ffff00;fill-rule:nonzero"
     points="24412349,12893565 24412349,12964753 24359635,12964753 24359635,12893565 24293396,12794763 24351721,12794763 24386116,12851977 24420334,12794763 24478352,12794763 "
     class="fil1"
     id="16"
     transform="translate(-20969076,-10414473)" /><polygon
     style="fill:#ffff00;fill-rule:nonzero"
     points="24633259,12858155 24633259,12892809 24551831,12892809 24551831,12926295 24642283,12926295 24642283,12964753 24499116,12964753 24499116,12794763 24639672,12794763 24639672,12831083 24551831,12831083 24551831,12858155 "
     class="fil1"
     id="17"
     transform="translate(-20969076,-10414473)" /><path
     style="fill:#ffff00;fill-rule:nonzero"
     inkscape:connector-curvature="0"
     d="m 3706172.1,2550280 0,-169990 87523,0 c 16229,0 28655,1382 37194,4193 8587,2764 15521,7949 20777,15473 5268,7559 7878,16772 7878,27615 0,9414 -2020,17575 -6059,24414 -3993,6886 -9532,12426 -16619,16702 -4465,2693 -10642,4949 -18438,6720 6249,2103 10808,4158 13654,6260 1902,1382 4713,4394 8387,8942 3637,4547 6094,8067 7323,10559 l 25524,49112 -59352,0 -28064,-51840 c -3556,-6721 -6721,-11080 -9497,-13099 -3791,-2611 -8114,-3910 -12898,-3910 l -4630,0 0,68849 -52703,0 z m 52703,-100905 22206,0 c 2374,0 7039,-792 13925,-2339 3485,-673 6331,-2445 8505,-5339 2220,-2882 3330,-6165 3330,-9886 0,-5504 -1748,-9744 -5232,-12662 -3485,-2976 -10004,-4441 -19619,-4441 l -23115,0 0,34667 z"
     class="fil1"
     id="18" /><path
     style="fill:#ffff00;fill-rule:nonzero"
     inkscape:connector-curvature="0"
     id="path4528"
     d="m 1233540.1,1540401 -486809.01,-189 -70195,133411 -298050,0 424267,-808884 380388.01,0 424539,808884 -304216,0 -69924,-133222 z m -92129,-175530 -152285.01,-290514 -150655,290526 302940.01,-12 z m 416235,-500132 458970,0 177183,492101 176369,-492101 457410,0 0,808884 -284951,0 0,-616794 -221075,616794 -257868,0 -220307,-616794 0,616794 -285731,0 0,-808884 z m 1255392,0 1060432,0 0,199826 -355915,0 0,609058 -348851,0 0,-609058 -355666,0 0,-199826 z"
     class="fil1" /><path
     style="fill:#ffff00;fill-rule:nonzero"
     inkscape:connector-curvature="0"
     id="path4530"
     d="m 682772.09,2063306 122060,36816 c -8174,34182 -21072,62813 -38789,85669 -17623,22961 -39438,40265 -65648,51911 -26115,11634 -59352,17504 -99724,17504 -49076,0 -89023,-7122 -120170,-21284 -31040,-14256 -57781,-39320 -80329,-75085 -22548,-35753 -33864,-81688 -33864,-137474 0,-74447 19820,-131697 59447,-171762 39746,-39946 95850,-59978 168408,-59978 56730,0 101413,11433 133918,34395 32399,22961 56624,58195 72357,105807 l -122697,27154 c -4300,-13630 -8800,-23587 -13524,-29883 -7867,-10595 -17410,-18768 -28631,-24438 -11327,-5764 -23907,-8598 -37856,-8598 -31666,0 -55892,12697 -72664,37962 -12685,18768 -19087,48344 -19087,88503 0,49915 7547,84003 22760,102559 15202,18449 36486,27686 63959,27686 26635,0 46774,-7453 60404,-22442 13631,-14894 23493,-36604 29670,-65022 z"
     class="fil1" /><path
     style="fill:#ffff00;fill-rule:nonzero"
     inkscape:connector-curvature="0"
     d="m 871425.09,1797170 231540.01,0 c 50435,0 88184,11953 113354,35966 25064,24013 37643,58207 37643,102559 0,45509 -13736,81168 -41104,106752 -27367,25690 -69203,38482 -125414,38482 l -76337,0 0,166730 -139682.01,0 0,-450489 z m 139682.01,192527 34289,0 c 27048,0 46029,-4713 56943,-14056 10902,-9331 16359,-21284 16359,-35859 0,-14150 -4725,-26104 -14269,-35966 -9437,-9851 -27260,-14788 -53482,-14788 l -39840,0 0,100669 z"
     class="fil1"
     id="path4532" /><polygon
     style="fill:#ffff00;fill-rule:nonzero"
     points="22445235,12449467 22445235,12546368 22263410,12546368 22263410,12449467 "
     class="fil1"
     id="polygon4534"
     transform="translate(-20969076,-10414473)" /><path
     style="fill:#ffff00;fill-rule:nonzero"
     inkscape:connector-curvature="0"
     d="m 1799557.1,1789623 0,458036 -126466,0 0,-299692 c -20445,15520 -40265,27993 -59458,37537 -19194,9543 -43207,18768 -72038,27473 l 0,-101921 c 42568,-13843 75711,-30414 99204,-49714 23587,-19395 42049,-43301 55360,-71719 l 103398,0 z"
     class="fil1"
     id="path4536" /><path
     style="fill:#ffff00;fill-rule:nonzero"
     inkscape:connector-curvature="0"
     d="m 1935471.1,2020525 c 0,-85562 15414,-145446 46242,-179629 30828,-34182 77814,-51273 140828,-51273 30308,0 55265,3779 74660,11221 19512,7441 35340,17197 47612,29150 12378,11953 22016,24533 29044,37750 7134,13217 12792,28631 17091,46242 8398,33556 12591,68577 12591,105074 0,81688 -13843,141454 -41529,179310 -27579,37855 -75180,56836 -142824,56836 -37855,0 -68471,-6082 -91857,-18142 -23387,-12059 -42463,-29777 -57463,-53163 -10796,-16572 -19300,-39214 -25383,-67952 -5976,-28831 -9012,-60604 -9012,-95424 z m 123949,212 c 0,57250 5032,96476 15202,117442 10169,20977 24851,31465 44151,31465 12685,0 23694,-4405 33025,-13323 9331,-8906 16158,-23068 20552,-42261 4405,-19288 6614,-49278 6614,-89968 0,-59766 -5032,-99937 -15213,-120595 -10170,-20552 -25371,-30828 -45616,-30828 -20753,0 -35647,10489 -44872,31466 -9236,20965 -13843,59872 -13843,116602 z"
     class="fil1"
     id="path4538" /><path
     style="fill:#ffff00;fill-rule:nonzero"
     inkscape:connector-curvature="0"
     d="m 2355132.1,2020525 c 0,-85562 15414,-145446 46242,-179629 30827,-34182 77813,-51273 140827,-51273 30309,0 55266,3779 74661,11221 19512,7441 35339,17197 47612,29150 12378,11953 22016,24533 29044,37750 7134,13217 12792,28631 17091,46242 8398,33556 12591,68577 12591,105074 0,81688 -13843,141454 -41529,179310 -27580,37855 -75180,56836 -142824,56836 -37856,0 -68471,-6082 -91858,-18142 -23386,-12059 -42462,-29777 -57462,-53163 -10796,-16572 -19300,-39214 -25383,-67952 -5977,-28831 -9012,-60604 -9012,-95424 z m 123949,212 c 0,57250 5032,96476 15201,117442 10170,20977 24852,31465 44152,31465 12685,0 23693,-4405 33024,-13323 9331,-8906 16158,-23068 20552,-42261 4406,-19288 6615,-49278 6615,-89968 0,-59766 -5032,-99937 -15213,-120595 -10170,-20552 -25371,-30828 -45616,-30828 -20753,0 -35647,10489 -44872,31466 -9236,20965 -13843,59872 -13843,116602 z"
     class="fil1"
     id="path4540" /><polygon
     style="fill:#ffff00;fill-rule:nonzero"
     points="23913741,12449467 23913741,12546368 23731915,12546368 23731915,12449467 "
     class="fil1"
     id="polygon4542"
     transform="translate(-20969076,-10414473)" /><path
     style="fill:#ffff00;fill-rule:nonzero"
     inkscape:connector-curvature="0"
     d="m 3003805.1,1797170 231539,0 c 50435,0 88185,11953 113355,35966 25064,24013 37643,58207 37643,102559 0,45509 -13737,81168 -41104,106752 -27367,25690 -69203,38482 -125414,38482 l -76337,0 0,166730 -139682,0 0,-450489 z m 139682,192527 34288,0 c 27049,0 46030,-4713 56943,-14056 10902,-9331 16359,-21284 16359,-35859 0,-14150 -4724,-26104 -14268,-35966 -9437,-9851 -27261,-14788 -53482,-14788 l -39840,0 0,100669 z"
     class="fil1"
     id="path4544" /><path
     style="fill:#ffff00;fill-rule:nonzero"
     inkscape:connector-curvature="0"
     d="m 3682467.1,2173412 -157707,0 -22654,74247 -142092,0 169565,-450489 152368,0 168821,450489 -145753,0 -22548,-74247 z m -29470,-97515 -49171,-161911 -49395,161911 98566,0 z"
     class="fil1"
     id="path4546" /><polygon
     style="fill:#ffff00;fill-rule:nonzero"
     id="polygon4548"
     points="21514895,13820551 21535813,13738970 21583555,13738970 21535848,13868719 21491685,13868719 21465440,13790633 21440057,13868719 21395646,13868719 21347562,13738970 21395611,13738970 21416482,13820433 21442975,13738970 21487480,13738970 "
     class="fil1"
     transform="translate(-20969076,-10414473)" /><polygon
     style="fill:#ffff00;fill-rule:nonzero"
     points="21750840,13820551 21771758,13738970 21819500,13738970 21771794,13868719 21727631,13868719 21701386,13790633 21676003,13868719 21631592,13868719 21583507,13738970 21631556,13738970 21652427,13820433 21678920,13738970 21723426,13738970 "
     class="fil1"
     id="polygon4550"
     transform="translate(-20969076,-10414473)" /><polygon
     style="fill:#ffff00;fill-rule:nonzero"
     points="21986786,13820551 22007704,13738970 22055446,13738970 22007739,13868719 21963576,13868719 21937331,13790633 21911948,13868719 21867537,13868719 21819453,13738970 21867502,13738970 21888373,13820433 21914866,13738970 21959371,13738970 "
     class="fil1"
     id="polygon4552"
     transform="translate(-20969076,-10414473)" /><polygon
     style="fill:#ffff00;fill-rule:nonzero"
     points="22101900,13818969 22101900,13868719 22048902,13868719 22048902,13818969 "
     class="fil1"
     id="polygon4554"
     transform="translate(-20969076,-10414473)" /><path
     style="fill:#ffff00;fill-rule:nonzero"
     inkscape:connector-curvature="0"
     d="m 1208323.1,3366498 -47494,-4996 c 1784,-8339 4370,-14882 7748,-19631 3367,-4783 8209,-8917 14576,-12413 4547,-2540 10795,-4501 18756,-5871 7949,-1382 16583,-2090 25867,-2090 14883,0 26789,838 35836,2504 9001,1665 16536,5161 22536,10453 4253,3673 7583,8882 10005,15591 2457,6709 3661,13122 3661,19241 l 0,57333 c 0,6130 378,10913 1170,14374 756,3461 2456,7878 5043,13253 l -46537,0 c -1878,-3331 -3083,-5835 -3673,-7583 -544,-1748 -1122,-4453 -1701,-8162 -6508,6248 -12957,10701 -19418,13370 -8788,3579 -19005,5375 -30627,5375 -15461,0 -27202,-3579 -35210,-10796 -8032,-7158 -12036,-16040 -12036,-26540 0,-9875 2870,-18001 8670,-24367 5787,-6379 16453,-11127 31997,-14210 18626,-3756 30709,-6378 36249,-7913 5540,-1500 11410,-3461 17575,-5918 0,-6130 -1252,-10382 -3791,-12839 -2492,-2457 -6910,-3661 -13241,-3661 -8126,0 -14209,1287 -18296,3909 -3165,2091 -5704,5918 -7665,11587 z m 42993,25997 c -6827,2457 -13949,4630 -21414,6544 -10075,2705 -16500,5374 -19158,7996 -2799,2717 -4169,5800 -4169,9249 0,3968 1370,7216 4075,9709 2752,2504 6756,3756 12047,3756 5540,0 10702,-1382 15497,-4087 4748,-2705 8126,-6000 10122,-9910 2008,-3921 3000,-9000 3000,-15249 l 0,-8008 z"
     class="fil1"
     id="path4556" /><path
     style="fill:#ffff00;fill-rule:nonzero"
     inkscape:connector-curvature="0"
     d="m 1330063.1,3324497 46337,0 0,18874 c 6661,-7913 13418,-13535 20209,-16866 6792,-3343 15001,-5008 24615,-5008 10335,0 18509,1842 24544,5504 6048,3661 10961,9130 14788,16370 7796,-8457 14883,-14244 21296,-17291 6414,-3036 14328,-4583 23753,-4583 13867,0 24698,4134 32493,12425 7796,8245 11706,21202 11706,38789 l 0,81535 -49750,0 0,-74117 c 0,-5918 -1122,-10300 -3414,-13135 -3283,-4500 -7453,-6744 -12366,-6744 -5835,0 -10548,2126 -14127,6378 -3543,4241 -5339,11079 -5339,20458 l 0,67160 -49749,0 0,-71495 c 0,-5705 -331,-9591 -993,-11623 -1051,-3260 -2882,-5882 -5504,-7878 -2586,-1996 -5669,-3000 -9165,-3000 -5705,0 -10418,2162 -14080,6461 -3673,4335 -5504,11410 -5504,21284 l 0,66251 -49750,0 0,-129749 z"
     class="fil1"
     id="path4558" /><path
     style="fill:#ffff00;fill-rule:nonzero"
     inkscape:connector-curvature="0"
     d="m 1639547.1,3275255 0,49242 27249,0 0,36497 -27249,0 0,45923 c 0,5492 543,9166 1595,10949 1618,2752 4500,4134 8575,4134 3673,0 8799,-1039 15414,-3165 l 3673,34371 c -12296,2705 -23753,4040 -34419,4040 -12378,0 -21496,-1583 -27367,-4749 -5835,-3165 -10169,-7996 -13004,-14457 -2788,-6461 -4205,-16961 -4205,-31418 l 0,-45628 -18249,0 0,-36497 18249,0 0,-23788 49738,-25454 z"
     class="fil1"
     id="path4560" /><path
     style="fill:#ffff00;fill-rule:nonzero"
     inkscape:connector-curvature="0"
     d="m 1834507.1,3401744 -99748,0 c 921,7961 3047,13925 6496,17835 4796,5622 11091,8422 18840,8422 4913,0 9579,-1217 13961,-3627 2705,-1547 5622,-4252 8705,-8126 l 48994,4500 c -7501,12993 -16536,22371 -27119,27993 -10583,5670 -25797,8505 -45581,8505 -17209,0 -30710,-2422 -40584,-7288 -9839,-4843 -18001,-12544 -24497,-23091 -6461,-10583 -9709,-22997 -9709,-37242 0,-20292 6496,-36745 19501,-49289 12957,-12544 30910,-18839 53789,-18839 18580,0 33202,2834 43951,8457 10748,5634 18957,13760 24579,24461 5634,10666 8422,24580 8422,41706 l 0,5623 z m -50494,-23741 c -969,-9674 -3591,-16584 -7796,-20753 -4205,-4170 -9709,-6248 -16583,-6248 -7914,0 -14245,3165 -19005,9461 -2988,3909 -4913,9744 -5740,17540 l 49124,0 z"
     class="fil1"
     id="path4562" /><polygon
     style="fill:#ffff00;fill-rule:nonzero"
     points="22877829,13689728 22877829,13868719 22828080,13868719 22828080,13689728 "
     class="fil1"
     id="polygon4564"
     transform="translate(-20969076,-10414473)" /><path
     style="fill:#ffff00;fill-rule:nonzero"
     inkscape:connector-curvature="0"
     d="m 2084496.1,3401744 -99748,0 c 922,7961 3048,13925 6497,17835 4795,5622 11091,8422 18839,8422 4913,0 9579,-1217 13961,-3627 2705,-1547 5622,-4252 8705,-8126 l 48994,4500 c -7500,12993 -16536,22371 -27119,27993 -10583,5670 -25796,8505 -45581,8505 -17209,0 -30709,-2422 -40584,-7288 -9839,-4843 -18000,-12544 -24497,-23091 -6460,-10583 -9709,-22997 -9709,-37242 0,-20292 6497,-36745 19501,-49289 12957,-12544 30911,-18839 53789,-18839 18580,0 33202,2834 43951,8457 10748,5634 18957,13760 24579,24461 5635,10666 8422,24580 8422,41706 l 0,5623 z m -50494,-23741 c -968,-9674 -3591,-16584 -7795,-20753 -4205,-4170 -9709,-6248 -16584,-6248 -7913,0 -14244,3165 -19004,9461 -2989,3909 -4914,9744 -5741,17540 l 49124,0 z"
     class="fil1"
     id="path4566" /><path
     style="fill:#ffff00;fill-rule:nonzero"
     inkscape:connector-curvature="0"
     d="m 2203992.1,3403504 47246,5244 c -2622,9874 -6874,18414 -12839,25666 -5906,7205 -13536,12827 -22784,16831 -9213,4005 -20954,6001 -35210,6001 -13784,0 -25241,-1288 -34419,-3839 -9118,-2575 -16996,-6744 -23622,-12497 -6579,-5705 -11741,-12461 -15497,-20209 -3744,-7748 -5622,-18001 -5622,-30781 0,-13335 2291,-24461 6827,-33332 3342,-6543 7925,-12378 13713,-17551 5787,-5162 11705,-9036 17835,-11540 9709,-3992 22123,-6000 37242,-6000 21213,0 37336,3791 48462,11339 11126,7583 18910,18626 23410,33166 l -46750,6248 c -1452,-5539 -4122,-9709 -7996,-12543 -3874,-2788 -9083,-4205 -15626,-4205 -8209,0 -14871,2953 -19997,8835 -5079,5917 -7619,14823 -7619,26824 0,10665 2540,18756 7583,24296 5032,5539 11457,8291 19288,8291 6497,0 12001,-1665 16418,-4960 4453,-3331 7749,-8410 9957,-15284 z"
     class="fil1"
     id="path4568" /><path
     style="fill:#ffff00;fill-rule:nonzero"
     inkscape:connector-curvature="0"
     d="m 2333977.1,3275255 0,49242 27249,0 0,36497 -27249,0 0,45923 c 0,5492 544,9166 1595,10949 1618,2752 4500,4134 8575,4134 3673,0 8800,-1039 15414,-3165 l 3673,34371 c -12295,2705 -23752,4040 -34418,4040 -12379,0 -21497,-1583 -27367,-4749 -5835,-3165 -10170,-7996 -13005,-14457 -2787,-6461 -4205,-16961 -4205,-31418 l 0,-45628 -18248,0 0,-36497 18248,0 0,-23788 49738,-25454 z"
     class="fil1"
     id="path4570" /><path
     style="fill:#ffff00;fill-rule:nonzero"
     inkscape:connector-curvature="0"
     d="m 2385440.1,3324497 46584,0 0,21166 c 4500,-9201 9119,-15532 13879,-18993 4783,-3461 10665,-5173 17658,-5173 7382,0 15414,2291 24131,6874 l -15414,35293 c -5882,-2457 -10548,-3662 -13961,-3662 -6497,0 -11587,2705 -15166,8079 -5127,7583 -7713,21792 -7713,42580 l 0,43585 -49998,0 0,-129749 z"
     class="fil1"
     id="path4572" /><path
     style="fill:#ffff00;fill-rule:nonzero"
     inkscape:connector-curvature="0"
     d="m 2493940.1,3389743 c 0,-19831 6662,-36155 19997,-48994 13335,-12827 31335,-19252 54002,-19252 25949,0 45533,7547 58785,22630 10630,12166 15957,27120 15957,44872 0,19997 -6579,36332 -19784,49124 -13217,12744 -31501,19123 -54840,19123 -20788,0 -37620,-5292 -50447,-15922 -15792,-13123 -23670,-30332 -23670,-51581 z m 49750,-82 c 0,11634 2327,20209 6992,25749 4666,5551 10500,8338 17587,8338 7123,0 12957,-2752 17540,-8209 4583,-5456 6875,-14244 6875,-26327 0,-11292 -2292,-19666 -6910,-25218 -4630,-5492 -10335,-8244 -17174,-8244 -7205,0 -13158,2787 -17871,8374 -4712,5622 -7039,14127 -7039,25537 z"
     class="fil1"
     id="path4574" /><path
     style="fill:#ffff00;fill-rule:nonzero"
     inkscape:connector-curvature="0"
     d="m 2666682.1,3324497 46325,0 0,21130 c 6921,-8669 13878,-14835 20965,-18544 7075,-3708 15662,-5586 25832,-5586 13748,0 24461,4086 32245,12295 7748,8162 11622,20836 11622,37962 l 0,82492 -49997,0 0,-71377 c 0,-8162 -1500,-13914 -4501,-17292 -3000,-3366 -7205,-5079 -12614,-5079 -5965,0 -10843,2292 -14552,6839 -3709,4583 -5575,12744 -5575,24580 l 0,62329 -49750,0 0,-129749 z"
     class="fil1"
     id="path4576" /><path
     style="fill:#ffff00;fill-rule:nonzero"
     inkscape:connector-curvature="0"
     d="m 2835173.1,3275255 49749,0 0,33745 -49749,0 0,-33745 z m 0,49242 49749,0 0,129749 -49749,0 0,-129749 z"
     class="fil1"
     id="path4578" /><path
     style="fill:#ffff00;fill-rule:nonzero"
     inkscape:connector-curvature="0"
     d="m 3013419.1,3403504 47246,5244 c -2622,9874 -6874,18414 -12839,25666 -5906,7205 -13536,12827 -22784,16831 -9213,4005 -20954,6001 -35210,6001 -13784,0 -25241,-1288 -34419,-3839 -9118,-2575 -16997,-6744 -23623,-12497 -6579,-5705 -11740,-12461 -15496,-20209 -3745,-7748 -5623,-18001 -5623,-30781 0,-13335 2292,-24461 6827,-33332 3343,-6543 7926,-12378 13713,-17551 5788,-5162 11706,-9036 17836,-11540 9709,-3992 22123,-6000 37241,-6000 21214,0 37336,3791 48463,11339 11126,7583 18910,18626 23410,33166 l -46750,6248 c -1453,-5539 -4122,-9709 -7996,-12543 -3874,-2788 -9083,-4205 -15627,-4205 -8209,0 -14870,2953 -19996,8835 -5079,5917 -7619,14823 -7619,26824 0,10665 2540,18756 7583,24296 5032,5539 11457,8291 19288,8291 6496,0 12001,-1665 16418,-4960 4453,-3331 7748,-8410 9957,-15284 z"
     class="fil1"
     id="path4580" /><path
     style="fill:#ffff00;fill-rule:nonzero"
     inkscape:connector-curvature="0"
     d="m 3074662.1,3418244 49253,-4500 c 2032,5835 4867,10004 8540,12508 3661,2493 8540,3745 14658,3745 6673,0 11835,-1418 15508,-4288 2871,-2091 4288,-4748 4288,-7925 0,-3579 -1878,-6367 -5622,-8327 -2670,-1371 -9792,-3083 -21332,-5127 -17256,-3000 -29210,-5787 -35966,-8374 -6697,-2539 -12331,-6921 -16949,-13004 -4583,-6119 -6874,-13076 -6874,-20907 0,-8539 2456,-15921 7417,-22087 4949,-6213 11788,-10831 20493,-13878 8705,-3036 20375,-4583 34997,-4583 15414,0 26836,1169 34171,3543 7370,2374 13500,6048 18414,10997 4914,5008 9000,11717 12248,20209 l -46997,4500 c -1205,-4122 -3248,-7158 -6083,-9118 -3874,-2587 -8587,-3874 -14127,-3874 -5575,0 -9661,992 -12201,3000 -2551,1996 -3839,4417 -3839,7240 0,3213 1630,5587 4831,7217 3213,1665 10300,3118 21166,4417 16548,1867 28797,4500 36876,7831 8043,3331 14209,8079 18461,14292 4288,6201 6414,12993 6414,20410 0,7501 -2245,14788 -6792,21875 -4500,7087 -11622,12709 -21331,16914 -9709,4217 -22962,6296 -39711,6296 -23658,0 -40536,-3378 -50576,-10170 -10040,-6744 -16501,-16371 -19335,-28832 z"
     class="fil1"
     id="path4582" /><polygon
     style="fill:#ffff00;fill-rule:nonzero"
     points="24258434,13818969 24258434,13868719 24205436,13868719 24205436,13818969 "
     class="fil1"
     id="polygon4584"
     transform="translate(-20969076,-10414473)" /><path
     style="fill:#ffff00;fill-rule:nonzero"
     inkscape:connector-curvature="0"
     d="m 3416107.1,3403504 47246,5244 c -2623,9874 -6875,18414 -12839,25666 -5906,7205 -13536,12827 -22785,16831 -9213,4005 -20953,6001 -35210,6001 -13784,0 -25241,-1288 -34418,-3839 -9119,-2575 -16997,-6744 -23623,-12497 -6579,-5705 -11741,-12461 -15497,-20209 -3744,-7748 -5622,-18001 -5622,-30781 0,-13335 2291,-24461 6827,-33332 3343,-6543 7926,-12378 13713,-17551 5788,-5162 11705,-9036 17835,-11540 9709,-3992 22123,-6000 37242,-6000 21213,0 37336,3791 48462,11339 11127,7583 18910,18626 23411,33166 l -46750,6248 c -1453,-5539 -4122,-9709 -7996,-12543 -3875,-2788 -9083,-4205 -15627,-4205 -8209,0 -14871,2953 -19997,8835 -5079,5917 -7618,14823 -7618,26824 0,10665 2539,18756 7583,24296 5031,5539 11457,8291 19288,8291 6496,0 12000,-1665 16418,-4960 4453,-3331 7748,-8410 9957,-15284 z"
     class="fil1"
     id="19" /><path
     style="fill:#ffff00;fill-rule:nonzero"
     inkscape:connector-curvature="0"
     d="m 3480101.1,3389743 c 0,-19831 6662,-36155 19997,-48994 13335,-12827 31336,-19252 54002,-19252 25950,0 45533,7547 58786,22630 10630,12166 15957,27120 15957,44872 0,19997 -6579,36332 -19784,49124 -13217,12744 -31501,19123 -54841,19123 -20788,0 -37619,-5292 -50447,-15922 -15791,-13123 -23670,-30332 -23670,-51581 z m 49750,-82 c 0,11634 2327,20209 6992,25749 4666,5551 10501,8338 17588,8338 7122,0 12957,-2752 17540,-8209 4583,-5456 6874,-14244 6874,-26327 0,-11292 -2291,-19666 -6910,-25218 -4630,-5492 -10335,-8244 -17174,-8244 -7205,0 -13158,2787 -17870,8374 -4713,5622 -7040,14127 -7040,25537 z"
     class="fil1"
     id="20" /><path
     style="fill:#ffff00;fill-rule:nonzero"
     inkscape:connector-curvature="0"
     d="m 3653340.1,3324497 46336,0 0,18874 c 6662,-7913 13418,-13535 20209,-16866 6792,-3343 15001,-5008 24616,-5008 10335,0 18508,1842 24544,5504 6047,3661 10961,9130 14788,16370 7795,-8457 14882,-14244 21296,-17291 6413,-3036 14327,-4583 23753,-4583 13866,0 24697,4134 32493,12425 7795,8245 11705,21202 11705,38789 l 0,81535 -49750,0 0,-74117 c 0,-5918 -1122,-10300 -3413,-13135 -3284,-4500 -7453,-6744 -12367,-6744 -5835,0 -10548,2126 -14126,6378 -3544,4241 -5339,11079 -5339,20458 l 0,67160 -49750,0 0,-71495 c 0,-5705 -331,-9591 -992,-11623 -1051,-3260 -2882,-5882 -5504,-7878 -2587,-1996 -5670,-3000 -9166,-3000 -5705,0 -10418,2162 -14079,6461 -3674,4335 -5504,11410 -5504,21284 l 0,66251 -49750,0 0,-129749 z"
     class="fil1"
     id="21" /></svg>