<?xml version="1.0" encoding="UTF-8" standalone="no"?>
<!-- Creator: CorelDRAW X8 -->

<svg
   xmlns:dc="http://purl.org/dc/elements/1.1/"
   xmlns:cc="http://creativecommons.org/ns#"
   xmlns:rdf="http://www.w3.org/1999/02/22-rdf-syntax-ns#"
   xmlns:svg="http://www.w3.org/2000/svg"
   xmlns="http://www.w3.org/2000/svg"
   xmlns:sodipodi="http://sodipodi.sourceforge.net/DTD/sodipodi-0.dtd"
   xmlns:inkscape="http://www.inkscape.org/namespaces/inkscape"
   xml:space="preserve"
   width="419.23804"
   height="419.23923"
   version="1.1"
   style="clip-rule:evenodd;fill-rule:evenodd;image-rendering:optimizeQuality;shape-rendering:geometricPrecision;text-rendering:geometricPrecision"
   viewBox="0 0 4192380.4 4193075.2"
   id="svg4136"
   inkscape:version="0.91 r13725"
   sodipodi:docname="cp_16m_pa.svg"><metadata
     id="metadata4363"><rdf:RDF><cc:Work
         rdf:about=""><dc:format>image/svg+xml</dc:format><dc:type
           rdf:resource="http://purl.org/dc/dcmitype/StillImage" /><dc:title></dc:title></cc:Work></rdf:RDF></metadata><sodipodi:namedview
     pagecolor="#ffffff"
     bordercolor="#666666"
     borderopacity="1"
     objecttolerance="10"
     gridtolerance="10"
     guidetolerance="10"
     inkscape:pageopacity="0"
     inkscape:pageshadow="2"
     inkscape:window-width="1366"
     inkscape:window-height="705"
     id="namedview4361"
     showgrid="false"
     fit-margin-top="0"
     fit-margin-left="0"
     fit-margin-right="0"
     fit-margin-bottom="0"
     inkscape:zoom="0.21693548"
     inkscape:cx="-799.00418"
     inkscape:cy="-269.52584"
     inkscape:window-x="-8"
     inkscape:window-y="-8"
     inkscape:window-maximized="1"
     inkscape:current-layer="svg4136" /><defs
     id="defs4138"><style
       type="text/css"
       id="style4140"><![CDATA[
    .str0 {stroke:yellow;stroke-width:118114}
    .str1 {stroke:black;stroke-width:59057.2}
    .str2 {stroke:#99FF99;stroke-width:59057.2}
    .fil2 {fill:none}
    .fil0 {fill:black}
    .fil1 {fill:yellow;fill-rule:nonzero}
    .fil3 {fill:#99FF99;fill-rule:nonzero}
   ]]></style></defs><rect
     style="fill:none;stroke:#000000;stroke-width:59057.19921875"
     id="rect4241"
     ry="590572"
     rx="590572"
     height="4134018"
     width="4134006"
     y="29528.6"
     x="26671.689"
     class="fil2 str1" /><rect
     style="fill:#000000;stroke:#99ff99;stroke-width:59057.19921875"
     id="rect4243"
     ry="526449"
     rx="526449"
     height="4015904"
     width="4015892"
     y="88585.602"
     x="85727.688"
     class="fil0 str2" /><path
     style="fill:#99ff99;fill-rule:nonzero"
     inkscape:connector-curvature="0"
     id="path4245"
     d="m 349004.69,2667296.6 243127,0 c 52951,0 92590,12555 119024,37761 26316,25217 39521,61112 39521,107697 0,47777 -14422,85219 -43159,112090 -28737,26966 -72664,40407 -131686,40407 l -80164,0 0,175070 -146663,0 0,-473025 z m 146663,202153 36013,0 c 28407,0 48332,-4949 59790,-14753 11445,-9792 17173,-22347 17173,-37655 0,-14859 -4960,-27414 -14977,-37761 -9909,-10359 -28630,-15532 -56151,-15532 l -41848,0 0,105701 z"
     class="fil3" /><path
     style="fill:#99ff99;fill-rule:nonzero"
     inkscape:connector-curvature="0"
     d="m 1061636.7,3062365.6 -165608.01,0 -23789,77956 -149190,0 178046,-473025 159986.01,0 177278,473025 -153053,0 -23670,-77956 z m -30946,-102405 -51640.01,-170002 -51864,170002 103504.01,0 z"
     class="fil3"
     id="path4247" /><polygon
     style="fill:#99ff99;fill-rule:nonzero"
     points="27271901,13584323 27133825,13584323 26957433,13324577 26957433,13584323 26820018,13584323 26820018,13111298 26956441,13111298 27133825,13372472 27133825,13111298 27271901,13111298 "
     class="fil3"
     id="polygon4249"
     transform="translate(-25534200,-10444001)" /><path
     style="fill:#99ff99;fill-rule:nonzero"
     inkscape:connector-curvature="0"
     d="m 2072661.7,2969208.6 0,-98437 225941,0 0,201173 c -43277,29505 -81476,49655 -114619,60333 -33261,10689 -72675,15969 -118256,15969 -56175,0 -101980,-9579 -137320,-28737 -35340,-19052 -62766,-47565 -82255,-85444 -19488,-37761 -29174,-81263 -29174,-130257 0,-51640 10678,-96452 31926,-134662 21261,-38092 52420,-67054 93488,-86873 32045,-15308 75204,-22903 129383,-22903 52194,0 91279,4737 117157,14198 25986,9472 47459,24118 64526,44044 17068,19938 29954,45144 38541,75653 l -140721,25323 c -5835,-17953 -15639,-31713 -29505,-41186 -13879,-9579 -31490,-14316 -53081,-14316 -31938,0 -57486,11127 -76538,33368 -19040,22241 -28513,57474 -28513,105594 0,51085 9579,87641 28843,109551 19170,21911 46030,32931 80401,32931 16288,0 31820,-2315 46679,-7052 14752,-4736 31714,-12768 50872,-24001 l 0,-44269 -97775,0 z"
     class="fil3"
     id="path4251" /><path
     style="fill:#99ff99;fill-rule:nonzero"
     inkscape:connector-curvature="0"
     d="m 2676166.7,3062365.6 -165608,0 -23788,77956 -149191,0 178046,-473025 159986,0 177278,473025 -153052,0 -23671,-77956 z m -30946,-102405 -51639,-170002 -51864,170002 103503,0 z"
     class="fil3"
     id="path4253" /><polygon
     style="fill:#99ff99;fill-rule:nonzero"
     points="28806491,13287690 28806491,13384142 28579889,13384142 28579889,13477299 28831602,13477299 28831602,13584323 28433226,13584323 28433226,13111298 28824327,13111298 28824327,13212380 28579889,13212380 28579889,13287690 "
     class="fil3"
     id="polygon4255"
     transform="translate(-25534200,-10444001)" /><path
     style="fill:#99ff99;fill-rule:nonzero"
     inkscape:connector-curvature="0"
     d="m 3667147.7,3062365.6 -165608,0 -23789,77956 -149190,0 178046,-473025 159986,0 177278,473025 -153053,0 -23670,-77956 z m -30946,-102405 -51640,-170002 -51864,170002 103504,0 z"
     class="fil3"
     id="path4257" /><polygon
     style="fill:#99ff99;fill-rule:nonzero"
     id="polygon4259"
     points="25936026,12794763 25936026,12964753 25883311,12964753 25883311,12794763 "
     class="fil3"
     transform="translate(-25534200,-10444001)" /><path
     style="fill:#99ff99;fill-rule:nonzero"
     inkscape:connector-curvature="0"
     d="m 444051.69,2520751.6 0,-169990 87523,0 c 16229,0 28654,1382 37194,4193 8587,2764 15520,7949 20776,15473 5268,7559 7879,16772 7879,27615 0,9414 -2020,17575 -6060,24414 -3992,6886 -9532,12426 -16618,16702 -4465,2693 -10643,4949 -18438,6720 6248,2103 10807,4158 13654,6260 1902,1382 4713,4394 8386,8942 3638,4547 6095,8067 7323,10559 l 25525,49112 -59353,0 -28064,-51840 c -3555,-6721 -6721,-11080 -9496,-13099 -3792,-2611 -8115,-3910 -12898,-3910 l -4630,0 0,68849 -52703,0 z m 52703,-100905 22205,0 c 2374,0 7040,-792 13926,-2339 3484,-673 6331,-2445 8504,-5339 2221,-2882 3331,-6165 3331,-9886 0,-5504 -1748,-9744 -5233,-12662 -3484,-2976 -10004,-4441 -19618,-4441 l -23115,0 0,34667 z"
     class="fil3"
     id="path4261" /><path
     style="fill:#99ff99;fill-rule:nonzero"
     inkscape:connector-curvature="0"
     d="m 828360.69,2451182.6 46053,13890 c -3083,12898 -7949,23705 -14635,32328 -6649,8669 -14882,15201 -24780,19595 -9851,4394 -22395,6603 -37631,6603 -18521,0 -33592,-2693 -45344,-8032 -11717,-5374 -21804,-14835 -30309,-28336 -8504,-13489 -12780,-30816 -12780,-51876 0,-28087 7477,-49691 22430,-64809 15001,-15083 36167,-22643 63558,-22643 21402,0 38257,4323 50529,12981 12225,8670 21367,21969 27296,39935 l -46289,10240 c -1630,-5138 -3331,-8894 -5102,-11268 -2977,-4004 -6579,-7087 -10808,-9225 -4275,-2173 -9024,-3248 -14280,-3248 -11953,0 -21095,4796 -27426,14327 -4784,7087 -7205,18237 -7205,33403 0,18828 2847,31690 8587,38694 5740,6969 13772,10442 24143,10442 10051,0 17646,-2800 22784,-8457 5150,-5622 8870,-13820 11209,-24544 z"
     class="fil3"
     id="path4263" /><path
     style="fill:#99ff99;fill-rule:nonzero"
     inkscape:connector-curvature="0"
     d="m 897103.69,2435874.6 c 0,-27745 7712,-49348 23185,-64774 15473,-15473 36994,-23198 64621,-23198 28288.01,0 50092.01,7607 65400.01,22761 15319,15189 22950,36486 22950,63829 0,19855 -3320,36119 -10005,48829 -6685,12697 -16382,22595 -29009,29670 -12662,7087 -28406,10607 -47281.01,10607 -19158,0 -35021,-3048 -47600,-9142 -12544,-6131 -22761,-15781 -30556,-28998 -7796,-13181 -11705,-29717 -11705,-49584 z m 52466,118 c 0,17138 3201,29481 9579,36958 6402,7477 15107,11233 26115,11233 11280,0 20056.01,-3674 26233.01,-10997 6213,-7358 9296,-20493 9296,-39533 0,-15980 -3248,-27650 -9697,-35021 -6485,-7394 -15225.01,-11079 -26304.01,-11079 -10607,0 -19158,3768 -25572,11245 -6449,7476 -9650,19902 -9650,37194 z"
     class="fil3"
     id="path4265" /><polygon
     style="fill:#99ff99;fill-rule:nonzero"
     points="26802549,12964753 26752929,12964753 26689537,12871407 26689537,12964753 26640154,12964753 26640154,12794763 26689171,12794763 26752929,12888616 26752929,12794763 26802549,12794763 "
     class="fil3"
     id="polygon4267"
     transform="translate(-25534200,-10444001)" /><polygon
     style="fill:#99ff99;fill-rule:nonzero"
     points="26945905,12964753 26889009,12964753 26824778,12794763 26879666,12794763 26917971,12917106 26955720,12794763 27009025,12794763 "
     class="fil3"
     id="polygon4269"
     transform="translate(-25534200,-10444001)" /><path
     style="fill:#99ff99;fill-rule:nonzero"
     inkscape:connector-curvature="0"
     d="m 1481072.7,2435874.6 c 0,-27745 7713,-49348 23186,-64774 15473,-15473 36994,-23198 64621,-23198 28288,0 50092,7607 65400,22761 15319,15189 22949,36486 22949,63829 0,19855 -3319,36119 -10004,48829 -6685,12697 -16382,22595 -29009,29670 -12662,7087 -28406,10607 -47281,10607 -19158,0 -35021,-3048 -47600,-9142 -12544,-6131 -22761,-15781 -30556,-28998 -7796,-13181 -11706,-29717 -11706,-49584 z m 52467,118 c 0,17138 3201,29481 9579,36958 6402,7477 15107,11233 26115,11233 11280,0 20056,-3674 26233,-10997 6213,-7358 9296,-20493 9296,-39533 0,-15980 -3248,-27650 -9697,-35021 -6485,-7394 -15225,-11079 -26304,-11079 -10607,0 -19159,3768 -25572,11245 -6449,7476 -9650,19902 -9650,37194 z"
     class="fil3"
     id="path4271" /><polygon
     style="fill:#99ff99;fill-rule:nonzero"
     points="27223639,12964753 27223639,12794763 27276117,12794763 27276117,12922964 27358266,12922964 27358266,12964753 "
     class="fil3"
     id="polygon4273"
     transform="translate(-25534200,-10444001)" /><path
     style="fill:#99ff99;fill-rule:nonzero"
     inkscape:connector-curvature="0"
     d="m 1956259.7,2350761.6 52478,0 0,101259 c 0,10004 -1583,19501 -4713,28407 -3130,8941 -8032,16737 -14717,23422 -6685,6697 -13689,11362 -21012,14091 -10206,3756 -22478,5658 -36758,5658 -8279,0 -17292,-591 -27071,-1737 -9769,-1145 -17966,-3449 -24533,-6886 -6567,-3449 -12579,-8315 -18001,-14646 -5468,-6331 -9189,-12851 -11197,-19583 -3248,-10808 -4878,-20375 -4878,-28726 l 0,-101259 52478,0 0,103669 c 0,9260 2575,16500 7678,21686 5138,5220 12260,7831 21367,7831 8976,0 16063,-2564 21213,-7713 5103,-5103 7666,-12391 7666,-21804 l 0,-103669 z"
     class="fil3"
     id="path4275" /><polygon
     style="fill:#99ff99;fill-rule:nonzero"
     points="27623339,12964753 27623339,12836788 27569679,12836788 27569679,12794763 27729464,12794763 27729464,12836788 27675805,12836788 27675805,12964753 "
     class="fil3"
     id="polygon4277"
     transform="translate(-25534200,-10444001)" /><polygon
     style="fill:#99ff99;fill-rule:nonzero"
     points="27811814,12794763 27811814,12964753 27759099,12964753 27759099,12794763 "
     class="fil3"
     id="polygon4279"
     transform="translate(-25534200,-10444001)" /><path
     style="fill:#99ff99;fill-rule:nonzero"
     inkscape:connector-curvature="0"
     d="m 2312480.7,2435874.6 c 0,-27745 7713,-49348 23186,-64774 15473,-15473 36993,-23198 64620,-23198 28289,0 50093,7607 65400,22761 15320,15189 22950,36486 22950,63829 0,19855 -3319,36119 -10004,48829 -6685,12697 -16383,22595 -29009,29670 -12662,7087 -28407,10607 -47281,10607 -19159,0 -35021,-3048 -47600,-9142 -12544,-6131 -22761,-15781 -30557,-28998 -7795,-13181 -11705,-29717 -11705,-49584 z m 52467,118 c 0,17138 3201,29481 9579,36958 6402,7477 15107,11233 26115,11233 11280,0 20056,-3674 26233,-10997 6213,-7358 9296,-20493 9296,-39533 0,-15980 -3248,-27650 -9698,-35021 -6484,-7394 -15225,-11079 -26304,-11079 -10606,0 -19158,3768 -25571,11245 -6449,7476 -9650,19902 -9650,37194 z"
     class="fil3"
     id="path4281" /><polygon
     style="fill:#99ff99;fill-rule:nonzero"
     points="28217927,12964753 28168307,12964753 28104915,12871407 28104915,12964753 28055531,12964753 28055531,12794763 28104549,12794763 28168307,12888616 28168307,12794763 28217927,12794763 "
     class="fil3"
     id="polygon4283"
     transform="translate(-25534200,-10444001)" /><path
     style="fill:#99ff99;fill-rule:nonzero"
     inkscape:connector-curvature="0"
     d="m 2805478.7,2350761.6 87369,0 c 19041,0 33285,4512 42782,13571 9461,9059 14209,21957 14209,38694 0,17174 -5186,30627 -15521,40289 -10323,9697 -26115,14516 -47316,14516 l -28808,0 0,62920 -52715,0 0,-169990 z m 52715,72652 12933,0 c 10217,0 17375,-1784 21485,-5303 4122,-3520 6178,-8032 6178,-13536 0,-5339 -1784,-9851 -5386,-13572 -3556,-3720 -10288,-5587 -20174,-5587 l -15036,0 0,37998 z"
     class="fil3"
     id="path4285" /><polygon
     style="fill:#99ff99;fill-rule:nonzero"
     points="28515327,12964753 28515327,12794763 28567805,12794763 28567805,12922964 28649954,12922964 28649954,12964753 "
     class="fil3"
     id="polygon4287"
     transform="translate(-25534200,-10444001)" /><path
     style="fill:#99ff99;fill-rule:nonzero"
     inkscape:connector-curvature="0"
     d="m 3248030.7,2492734.6 -59518,0 -8540,28017 -53624,0 63983,-169990 57498,0 63711,169990 -55006,0 -8504,-28017 z m -11127,-36804 -18556,-61089 -18638,61089 37194,0 z"
     class="fil3"
     id="path4289" /><polygon
     style="fill:#99ff99;fill-rule:nonzero"
     points="28947945,12893565 28947945,12964753 28895231,12964753 28895231,12893565 28828992,12794763 28887317,12794763 28921712,12851977 28955930,12794763 29013948,12794763 "
     class="fil3"
     id="polygon4291"
     transform="translate(-25534200,-10444001)" /><polygon
     style="fill:#99ff99;fill-rule:nonzero"
     points="29168855,12858155 29168855,12892809 29087427,12892809 29087427,12926295 29177879,12926295 29177879,12964753 29034712,12964753 29034712,12794763 29175268,12794763 29175268,12831083 29087427,12831083 29087427,12858155 "
     class="fil3"
     id="polygon4293"
     transform="translate(-25534200,-10444001)" /><path
     style="fill:#99ff99;fill-rule:nonzero"
     inkscape:connector-curvature="0"
     d="m 3676643.7,2520751.6 0,-169990 87523,0 c 16229,0 28655,1382 37194,4193 8587,2764 15521,7949 20777,15473 5268,7559 7878,16772 7878,27615 0,9414 -2020,17575 -6059,24414 -3993,6886 -9532,12426 -16619,16702 -4465,2693 -10642,4949 -18438,6720 6249,2103 10808,4158 13654,6260 1902,1382 4713,4394 8386,8942 3638,4547 6095,8067 7324,10559 l 25524,49112 -59352,0 -28064,-51840 c -3556,-6721 -6721,-11080 -9497,-13099 -3791,-2611 -8114,-3910 -12898,-3910 l -4630,0 0,68849 -52703,0 z m 52703,-100905 22206,0 c 2374,0 7039,-792 13925,-2339 3485,-673 6331,-2445 8504,-5339 2221,-2882 3331,-6165 3331,-9886 0,-5504 -1748,-9744 -5232,-12662 -3485,-2976 -10004,-4441 -19619,-4441 l -23115,0 0,34667 z"
     class="fil3"
     id="path4295" /><path
     style="fill:#99ff99;fill-rule:nonzero"
     inkscape:connector-curvature="0"
     id="path4297"
     d="m 1204011.7,1510872.6 -486809.01,-189 -70195,133411 -298050,0 424267,-808884 380388.01,0 424539,808884 -304216,0 -69924,-133222 z m -92129,-175530 -152285.01,-290514 -150655,290526 302940.01,-12 z m 416235,-500132 458970,0 177183,492101 176369,-492101 457410,0 0,808884 -284951,0 0,-616794 -221075,616794 -257868,0 -220307,-616794 0,616794 -285731,0 0,-808884 z m 1255392,0 1060432,0 0,199826 -355915,0 0,609058 -348851,0 0,-609058 -355666,0 0,-199826 z"
     class="fil3" /><path
     style="fill:#99ff99;fill-rule:nonzero"
     inkscape:connector-curvature="0"
     id="path4299"
     d="m 663236.69,2021528.6 116591,35163 c -7819,32659 -20139,60002 -37065,81842 -16831,21933 -37666,38458 -62707,49572 -24934,11127 -56695,16737 -95259,16737 -46868,0 -85042,-6815 -114784,-20339 -29646,-13619 -55194,-37561 -76727,-71719 -21544,-34159 -32351,-78027 -32351,-131320 0,-71117 18922,-125804 56789,-164073 37962,-38163 91551,-57297 160872,-57297 54191,0 96854,10925 127906,32859 30958,21934 54097,55585 69121,101071 l -117193,25938 c -4111,-13016 -8422,-22537 -12922,-28549 -7512,-10110 -16631,-17929 -27355,-23339 -10808,-5504 -22832,-8209 -36155,-8209 -30249,0 -53388,12119 -69416,36261 -12119,17930 -18225,46171 -18225,84535 0,47683 7205,80235 21733,97964 14516,17634 34855,26446 61101,26446 25441,0 44670,-7111 57698,-21438 13017,-14221 22430,-34962 28348,-62105 z"
     class="fil3" /><path
     style="fill:#99ff99;fill-rule:nonzero"
     inkscape:connector-curvature="0"
     d="m 843431.69,1767311.6 221170.01,0 c 48179,0 84239,11421 108275,34359 23942,22938 35954,55585 35954,97964 0,43466 -13122,77519 -39261,101968 -26139,24533 -66109,36758 -119803,36758 l -72913.01,0 0,159265 -133422,0 0,-430314 z m 133422,183904 32754.01,0 c 25843,0 43974,-4512 54391,-13418 10418,-8918 15627,-20339 15627,-34265 0,-13524 -4512,-24934 -13631,-34360 -9012,-9413 -26044,-14114 -51084,-14114 l -38057.01,0 0,96157 z"
     class="fil3"
     id="path4301" /><polygon
     style="fill:#99ff99;fill-rule:nonzero"
     points="26955295,12438494 26955295,12531048 26781596,12531048 26781596,12438494 "
     class="fil3"
     id="polygon4303"
     transform="translate(-25534200,-10444001)" /><path
     style="fill:#99ff99;fill-rule:nonzero"
     inkscape:connector-curvature="0"
     d="m 1729999.7,1760094.6 0,437531 -120796,0 0,-286274 c -19536,14824 -38470,26741 -56789,35860 -18332,9106 -41270,17930 -68826,26245 l 0,-97362 c 40667,-13229 72322,-29056 94763,-47482 22537,-18532 40171,-41376 52892,-68518 l 98756,0 z"
     class="fil3"
     id="path4305" /><path
     style="fill:#99ff99;fill-rule:nonzero"
     inkscape:connector-curvature="0"
     d="m 2206000.7,1863964.6 -119000,14528 c -3107,-16524 -8316,-28147 -15627,-34856 -7418,-6815 -16430,-10217 -27143,-10217 -19335,0 -34359,9721 -45072,29245 -7819,14127 -13631,44175 -17339,90252 14327,-14528 28950,-25241 43974,-32151 15130,-6910 32458,-10418 52194,-10418 38364,0 70810,13725 97256,41069 26552,27449 39769,62199 39769,104271 0,28348 -6709,54297 -20138,77826 -13418,23445 -31950,41269 -55691,53293 -23836,12024 -53589,18036 -89448,18036 -43065,0 -77531,-7311 -103575,-22040 -26044,-14623 -46868,-38068 -62400,-70219 -15520,-32151 -23339,-74719 -23339,-127812 0,-77625 16323,-134426 49088,-170581 32647,-36060 77920,-54096 135926,-54096 34253,0 61302,3909 81133,11823 19831,7914 36356,19536 49478,34655 13123,15225 23139,34359 29954,57392 z m -220071,191723 c 0,23339 5918,41576 17635,54793 11811,13217 26138,19832 43170,19832 15721,0 28844,-6012 39462,-17930 10524,-11918 15828,-29753 15828,-53482 0,-24249 -5504,-42781 -16430,-55502 -11020,-12721 -24639,-19123 -40868,-19123 -16630,0 -30650,6201 -41871,18520 -11315,12332 -16926,29954 -16926,52892 z"
     class="fil3"
     id="path4307" /><polygon
     style="fill:#99ff99;fill-rule:nonzero"
     points="28296733,12641627 28187949,12641627 28187949,12313576 28104005,12641627 28005439,12641627 27921707,12313576 27921707,12641627 27812924,12641627 27812924,12211313 27988312,12211313 28055130,12473149 28122136,12211313 28296733,12211313 "
     class="fil3"
     id="polygon4309"
     transform="translate(-25534200,-10444001)" /><polygon
     style="fill:#99ff99;fill-rule:nonzero"
     points="28524410,12438494 28524410,12531048 28350711,12531048 28350711,12438494 "
     class="fil3"
     id="polygon4311"
     transform="translate(-25534200,-10444001)" /><path
     style="fill:#99ff99;fill-rule:nonzero"
     inkscape:connector-curvature="0"
     d="m 3046703.7,1767311.6 221170,0 c 48179,0 84239,11421 108275,34359 23942,22938 35954,55585 35954,97964 0,43466 -13122,77519 -39261,101968 -26139,24533 -66109,36758 -119803,36758 l -72912,0 0,159265 -133423,0 0,-430314 z m 133423,183904 32753,0 c 25843,0 43974,-4512 54391,-13418 10418,-8918 15627,-20339 15627,-34265 0,-13524 -4512,-24934 -13630,-34360 -9013,-9413 -26045,-14114 -51085,-14114 l -38056,0 0,96157 z"
     class="fil3"
     id="path4313" /><path
     style="fill:#99ff99;fill-rule:nonzero"
     inkscape:connector-curvature="0"
     d="m 3694975.7,2126709.6 -150644,0 -21638,70916 -135725,0 161970,-430314 145541,0 161273,430314 -139233,0 -21544,-70916 z m -28147,-93157 -46974,-154659 -47175,154659 94149,0 z"
     class="fil3"
     id="path4315" /><polygon
     style="fill:#99ff99;fill-rule:nonzero"
     id="polygon4317"
     points="26050491,13820551 26071409,13738970 26119151,13738970 26071444,13868719 26027281,13868719 26001036,13790633 25975653,13868719 25931242,13868719 25883158,13738970 25931207,13738970 25952078,13820433 25978571,13738970 26023076,13738970 "
     class="fil3"
     transform="translate(-25534200,-10444001)" /><polygon
     style="fill:#99ff99;fill-rule:nonzero"
     points="26286436,13820551 26307354,13738970 26355096,13738970 26307390,13868719 26263227,13868719 26236982,13790633 26211599,13868719 26167188,13868719 26119103,13738970 26167152,13738970 26188023,13820433 26214516,13738970 26259022,13738970 "
     class="fil3"
     id="polygon4319"
     transform="translate(-25534200,-10444001)" /><polygon
     style="fill:#99ff99;fill-rule:nonzero"
     points="26522382,13820551 26543300,13738970 26591042,13738970 26543335,13868719 26499172,13868719 26472927,13790633 26447544,13868719 26403133,13868719 26355049,13738970 26403098,13738970 26423969,13820433 26450462,13738970 26494967,13738970 "
     class="fil3"
     id="polygon4321"
     transform="translate(-25534200,-10444001)" /><polygon
     style="fill:#99ff99;fill-rule:nonzero"
     points="26637496,13818969 26637496,13868719 26584498,13868719 26584498,13818969 "
     class="fil3"
     id="polygon4323"
     transform="translate(-25534200,-10444001)" /><path
     style="fill:#99ff99;fill-rule:nonzero"
     inkscape:connector-curvature="0"
     d="m 1178794.7,3336969.6 -47494,-4996 c 1783,-8339 4370,-14882 7748,-19631 3367,-4783 8209,-8917 14576,-12413 4547,-2540 10795,-4501 18756,-5871 7949,-1382 16583,-2090 25867,-2090 14883,0 26789,838 35836,2504 9000,1665 16536,5161 22536,10453 4253,3673 7583,8882 10005,15591 2456,6709 3661,13122 3661,19241 l 0,57333 c 0,6130 378,10913 1170,14374 756,3461 2456,7878 5043,13253 l -46537,0 c -1878,-3331 -3083,-5835 -3673,-7583 -544,-1748 -1122,-4453 -1701,-8162 -6508,6248 -12957,10701 -19418,13370 -8788,3579 -19005,5375 -30627,5375 -15462,0 -27202,-3579 -35210,-10796 -8032,-7158 -12036,-16040 -12036,-26540 0,-9875 2870,-18001 8669,-24367 5788,-6379 16454,-11127 31998,-14210 18626,-3756 30709,-6378 36249,-7913 5540,-1500 11410,-3461 17575,-5918 0,-6130 -1252,-10382 -3791,-12839 -2492,-2457 -6910,-3661 -13241,-3661 -8126,0 -14209,1287 -18296,3909 -3165,2091 -5705,5918 -7665,11587 z m 42993,25997 c -6827,2457 -13949,4630 -21414,6544 -10075,2705 -16500,5374 -19158,7996 -2799,2717 -4169,5800 -4169,9249 0,3968 1370,7216 4075,9709 2752,2504 6756,3756 12047,3756 5540,0 10701,-1382 15497,-4087 4748,-2705 8126,-6000 10122,-9910 2008,-3921 3000,-9000 3000,-15249 l 0,-8008 z"
     class="fil3"
     id="path4325" /><path
     style="fill:#99ff99;fill-rule:nonzero"
     inkscape:connector-curvature="0"
     d="m 1300534.7,3294968.6 46337,0 0,18874 c 6661,-7913 13417,-13535 20209,-16866 6792,-3343 15001,-5008 24615,-5008 10335,0 18509,1842 24544,5504 6048,3661 10961,9130 14788,16370 7796,-8457 14883,-14244 21296,-17291 6414,-3036 14328,-4583 23753,-4583 13867,0 24698,4134 32493,12425 7796,8245 11706,21202 11706,38789 l 0,81535 -49750,0 0,-74117 c 0,-5918 -1122,-10300 -3414,-13135 -3283,-4500 -7453,-6744 -12366,-6744 -5835,0 -10548,2126 -14127,6378 -3543,4241 -5339,11079 -5339,20458 l 0,67160 -49749,0 0,-71495 c 0,-5705 -331,-9591 -993,-11623 -1051,-3260 -2882,-5882 -5504,-7878 -2586,-1996 -5669,-3000 -9165,-3000 -5705,0 -10418,2162 -14080,6461 -3673,4335 -5504,11410 -5504,21284 l 0,66251 -49750,0 0,-129749 z"
     class="fil3"
     id="path4327" /><path
     style="fill:#99ff99;fill-rule:nonzero"
     inkscape:connector-curvature="0"
     d="m 1610018.7,3245726.6 0,49242 27249,0 0,36497 -27249,0 0,45923 c 0,5492 543,9166 1594,10949 1619,2752 4501,4134 8576,4134 3673,0 8799,-1039 15414,-3165 l 3673,34371 c -12296,2705 -23753,4040 -34419,4040 -12378,0 -21497,-1583 -27367,-4749 -5835,-3165 -10169,-7996 -13004,-14457 -2788,-6461 -4205,-16961 -4205,-31418 l 0,-45628 -18249,0 0,-36497 18249,0 0,-23788 49738,-25454 z"
     class="fil3"
     id="path4329" /><path
     style="fill:#99ff99;fill-rule:nonzero"
     inkscape:connector-curvature="0"
     d="m 1804978.7,3372215.6 -99748,0 c 921,7961 3047,13925 6496,17835 4796,5622 11091,8422 18840,8422 4913,0 9579,-1217 13961,-3627 2705,-1547 5622,-4252 8705,-8126 l 48994,4500 c -7501,12993 -16536,22371 -27119,27993 -10584,5670 -25797,8505 -45581,8505 -17209,0 -30710,-2422 -40584,-7288 -9839,-4843 -18001,-12544 -24497,-23091 -6461,-10583 -9709,-22997 -9709,-37242 0,-20292 6496,-36745 19501,-49289 12957,-12544 30910,-18839 53789,-18839 18580,0 33202,2834 43951,8457 10748,5634 18957,13760 24579,24461 5634,10666 8422,24580 8422,41706 l 0,5623 z m -50494,-23741 c -969,-9674 -3591,-16584 -7796,-20753 -4205,-4170 -9709,-6248 -16583,-6248 -7914,0 -14245,3165 -19005,9461 -2988,3909 -4913,9744 -5740,17540 l 49124,0 z"
     class="fil3"
     id="path4331" /><polygon
     style="fill:#99ff99;fill-rule:nonzero"
     points="27413425,13689728 27413425,13868719 27363676,13868719 27363676,13689728 "
     class="fil3"
     id="polygon4333"
     transform="translate(-25534200,-10444001)" /><path
     style="fill:#99ff99;fill-rule:nonzero"
     inkscape:connector-curvature="0"
     d="m 2054967.7,3372215.6 -99748,0 c 922,7961 3048,13925 6497,17835 4795,5622 11091,8422 18839,8422 4913,0 9579,-1217 13961,-3627 2705,-1547 5622,-4252 8705,-8126 l 48994,4500 c -7500,12993 -16536,22371 -27119,27993 -10583,5670 -25796,8505 -45581,8505 -17209,0 -30709,-2422 -40584,-7288 -9839,-4843 -18000,-12544 -24497,-23091 -6460,-10583 -9709,-22997 -9709,-37242 0,-20292 6497,-36745 19501,-49289 12957,-12544 30911,-18839 53789,-18839 18580,0 33202,2834 43951,8457 10748,5634 18957,13760 24579,24461 5634,10666 8422,24580 8422,41706 l 0,5623 z m -50494,-23741 c -968,-9674 -3591,-16584 -7796,-20753 -4204,-4170 -9709,-6248 -16583,-6248 -7913,0 -14244,3165 -19004,9461 -2989,3909 -4914,9744 -5741,17540 l 49124,0 z"
     class="fil3"
     id="path4335" /><path
     style="fill:#99ff99;fill-rule:nonzero"
     inkscape:connector-curvature="0"
     d="m 2174463.7,3373975.6 47246,5244 c -2622,9874 -6874,18414 -12839,25666 -5906,7205 -13536,12827 -22784,16831 -9213,4005 -20954,6001 -35210,6001 -13784,0 -25241,-1288 -34419,-3839 -9118,-2575 -16996,-6744 -23623,-12497 -6578,-5705 -11740,-12461 -15496,-20209 -3744,-7748 -5622,-18001 -5622,-30781 0,-13335 2291,-24461 6827,-33332 3342,-6543 7925,-12378 13713,-17551 5787,-5162 11705,-9036 17835,-11540 9709,-3992 22123,-6000 37242,-6000 21213,0 37335,3791 48462,11339 11126,7583 18910,18626 23410,33166 l -46750,6248 c -1452,-5539 -4122,-9709 -7996,-12543 -3874,-2788 -9083,-4205 -15626,-4205 -8209,0 -14871,2953 -19997,8835 -5079,5917 -7619,14823 -7619,26824 0,10665 2540,18756 7583,24296 5032,5539 11457,8291 19288,8291 6497,0 12001,-1665 16418,-4960 4453,-3331 7749,-8410 9957,-15284 z"
     class="fil3"
     id="path4337" /><path
     style="fill:#99ff99;fill-rule:nonzero"
     inkscape:connector-curvature="0"
     d="m 2304448.7,3245726.6 0,49242 27249,0 0,36497 -27249,0 0,45923 c 0,5492 544,9166 1595,10949 1618,2752 4500,4134 8575,4134 3673,0 8800,-1039 15414,-3165 l 3673,34371 c -12295,2705 -23752,4040 -34418,4040 -12379,0 -21497,-1583 -27367,-4749 -5835,-3165 -10170,-7996 -13005,-14457 -2787,-6461 -4205,-16961 -4205,-31418 l 0,-45628 -18248,0 0,-36497 18248,0 0,-23788 49738,-25454 z"
     class="fil3"
     id="path4339" /><path
     style="fill:#99ff99;fill-rule:nonzero"
     inkscape:connector-curvature="0"
     d="m 2355911.7,3294968.6 46584,0 0,21166 c 4500,-9201 9119,-15532 13879,-18993 4783,-3461 10665,-5173 17658,-5173 7382,0 15414,2291 24131,6874 l -15414,35293 c -5882,-2457 -10548,-3662 -13962,-3662 -6496,0 -11587,2705 -15165,8079 -5127,7583 -7713,21792 -7713,42580 l 0,43585 -49998,0 0,-129749 z"
     class="fil3"
     id="path4341" /><path
     style="fill:#99ff99;fill-rule:nonzero"
     inkscape:connector-curvature="0"
     d="m 2464411.7,3360214.6 c 0,-19831 6661,-36155 19997,-48994 13335,-12827 31335,-19252 54002,-19252 25949,0 45533,7547 58785,22630 10630,12166 15957,27120 15957,44872 0,19997 -6579,36332 -19784,49124 -13217,12744 -31501,19123 -54840,19123 -20788,0 -37620,-5292 -50447,-15922 -15792,-13123 -23670,-30332 -23670,-51581 z m 49750,-82 c 0,11634 2326,20209 6992,25749 4666,5551 10500,8338 17587,8338 7123,0 12957,-2752 17540,-8209 4583,-5456 6875,-14244 6875,-26327 0,-11292 -2292,-19666 -6910,-25218 -4630,-5492 -10335,-8244 -17174,-8244 -7205,0 -13158,2787 -17871,8374 -4713,5622 -7039,14127 -7039,25537 z"
     class="fil3"
     id="path4343" /><path
     style="fill:#99ff99;fill-rule:nonzero"
     inkscape:connector-curvature="0"
     d="m 2637153.7,3294968.6 46325,0 0,21130 c 6921,-8669 13878,-14835 20965,-18544 7075,-3708 15662,-5586 25832,-5586 13748,0 24461,4086 32245,12295 7748,8162 11622,20836 11622,37962 l 0,82492 -49997,0 0,-71377 c 0,-8162 -1500,-13914 -4501,-17292 -3000,-3366 -7205,-5079 -12614,-5079 -5965,0 -10843,2292 -14552,6839 -3709,4583 -5575,12744 -5575,24580 l 0,62329 -49750,0 0,-129749 z"
     class="fil3"
     id="path4345" /><path
     style="fill:#99ff99;fill-rule:nonzero"
     inkscape:connector-curvature="0"
     d="m 2805644.7,3245726.6 49749,0 0,33745 -49749,0 0,-33745 z m 0,49242 49749,0 0,129749 -49749,0 0,-129749 z"
     class="fil3"
     id="path4347" /><path
     style="fill:#99ff99;fill-rule:nonzero"
     inkscape:connector-curvature="0"
     d="m 2983890.7,3373975.6 47246,5244 c -2622,9874 -6874,18414 -12839,25666 -5906,7205 -13536,12827 -22784,16831 -9213,4005 -20954,6001 -35210,6001 -13784,0 -25241,-1288 -34419,-3839 -9118,-2575 -16997,-6744 -23623,-12497 -6579,-5705 -11740,-12461 -15496,-20209 -3745,-7748 -5623,-18001 -5623,-30781 0,-13335 2292,-24461 6827,-33332 3343,-6543 7926,-12378 13713,-17551 5788,-5162 11706,-9036 17836,-11540 9709,-3992 22123,-6000 37241,-6000 21214,0 37336,3791 48463,11339 11126,7583 18910,18626 23410,33166 l -46750,6248 c -1453,-5539 -4122,-9709 -7996,-12543 -3874,-2788 -9083,-4205 -15627,-4205 -8209,0 -14870,2953 -19997,8835 -5078,5917 -7618,14823 -7618,26824 0,10665 2540,18756 7583,24296 5032,5539 11457,8291 19288,8291 6496,0 12001,-1665 16418,-4960 4453,-3331 7748,-8410 9957,-15284 z"
     class="fil3"
     id="path4349" /><path
     style="fill:#99ff99;fill-rule:nonzero"
     inkscape:connector-curvature="0"
     d="m 3045132.7,3388715.6 49254,-4500 c 2032,5835 4867,10004 8540,12508 3661,2493 8540,3745 14658,3745 6673,0 11835,-1418 15508,-4288 2871,-2091 4288,-4748 4288,-7925 0,-3579 -1878,-6367 -5622,-8327 -2670,-1371 -9792,-3083 -21332,-5127 -17256,-3000 -29210,-5787 -35966,-8374 -6697,-2539 -12331,-6921 -16949,-13004 -4583,-6119 -6874,-13076 -6874,-20907 0,-8539 2456,-15921 7417,-22087 4949,-6213 11788,-10831 20493,-13878 8705,-3036 20375,-4583 34997,-4583 15414,0 26836,1169 34171,3543 7370,2374 13500,6048 18414,10997 4914,5008 9000,11717 12248,20209 l -46997,4500 c -1205,-4122 -3248,-7158 -6083,-9118 -3874,-2587 -8587,-3874 -14127,-3874 -5575,0 -9661,992 -12201,3000 -2551,1996 -3839,4417 -3839,7240 0,3213 1630,5587 4831,7217 3213,1665 10300,3118 21166,4417 16548,1867 28797,4500 36876,7831 8043,3331 14209,8079 18461,14292 4288,6201 6414,12993 6414,20410 0,7501 -2245,14788 -6792,21875 -4500,7087 -11622,12709 -21331,16914 -9709,4217 -22962,6296 -39711,6296 -23658,0 -40536,-3378 -50576,-10170 -10040,-6744 -16501,-16371 -19336,-28832 z"
     class="fil3"
     id="path4351" /><polygon
     style="fill:#99ff99;fill-rule:nonzero"
     points="28794030,13818969 28794030,13868719 28741032,13868719 28741032,13818969 "
     class="fil3"
     id="polygon4353"
     transform="translate(-25534200,-10444001)" /><path
     style="fill:#99ff99;fill-rule:nonzero"
     inkscape:connector-curvature="0"
     d="m 3386578.7,3373975.6 47246,5244 c -2623,9874 -6875,18414 -12839,25666 -5906,7205 -13536,12827 -22785,16831 -9213,4005 -20953,6001 -35210,6001 -13784,0 -25241,-1288 -34418,-3839 -9119,-2575 -16997,-6744 -23623,-12497 -6579,-5705 -11741,-12461 -15497,-20209 -3744,-7748 -5622,-18001 -5622,-30781 0,-13335 2291,-24461 6827,-33332 3343,-6543 7926,-12378 13713,-17551 5788,-5162 11705,-9036 17835,-11540 9709,-3992 22123,-6000 37242,-6000 21213,0 37336,3791 48462,11339 11127,7583 18910,18626 23411,33166 l -46750,6248 c -1453,-5539 -4122,-9709 -7996,-12543 -3875,-2788 -9083,-4205 -15627,-4205 -8209,0 -14871,2953 -19997,8835 -5079,5917 -7618,14823 -7618,26824 0,10665 2539,18756 7583,24296 5031,5539 11457,8291 19288,8291 6496,0 12000,-1665 16418,-4960 4453,-3331 7748,-8410 9957,-15284 z"
     class="fil3"
     id="path4355" /><path
     style="fill:#99ff99;fill-rule:nonzero"
     inkscape:connector-curvature="0"
     d="m 3450572.7,3360214.6 c 0,-19831 6662,-36155 19997,-48994 13335,-12827 31336,-19252 54002,-19252 25950,0 45533,7547 58786,22630 10630,12166 15957,27120 15957,44872 0,19997 -6579,36332 -19784,49124 -13217,12744 -31502,19123 -54841,19123 -20788,0 -37619,-5292 -50447,-15922 -15792,-13123 -23670,-30332 -23670,-51581 z m 49750,-82 c 0,11634 2327,20209 6992,25749 4666,5551 10501,8338 17588,8338 7122,0 12957,-2752 17540,-8209 4583,-5456 6874,-14244 6874,-26327 0,-11292 -2291,-19666 -6910,-25218 -4630,-5492 -10335,-8244 -17174,-8244 -7205,0 -13158,2787 -17870,8374 -4713,5622 -7040,14127 -7040,25537 z"
     class="fil3"
     id="path4357" /><path
     style="fill:#99ff99;fill-rule:nonzero"
     inkscape:connector-curvature="0"
     d="m 3623811.7,3294968.6 46336,0 0,18874 c 6662,-7913 13418,-13535 20209,-16866 6792,-3343 15001,-5008 24615,-5008 10336,0 18509,1842 24545,5504 6047,3661 10961,9130 14788,16370 7795,-8457 14882,-14244 21296,-17291 6413,-3036 14327,-4583 23752,-4583 13867,0 24698,4134 32494,12425 7795,8245 11705,21202 11705,38789 l 0,81535 -49750,0 0,-74117 c 0,-5918 -1122,-10300 -3413,-13135 -3284,-4500 -7453,-6744 -12367,-6744 -5835,0 -10548,2126 -14126,6378 -3544,4241 -5339,11079 -5339,20458 l 0,67160 -49750,0 0,-71495 c 0,-5705 -331,-9591 -992,-11623 -1051,-3260 -2882,-5882 -5504,-7878 -2587,-1996 -5670,-3000 -9166,-3000 -5705,0 -10418,2162 -14079,6461 -3674,4335 -5504,11410 -5504,21284 l 0,66251 -49750,0 0,-129749 z"
     class="fil3"
     id="path4359" /></svg>